<?xml version="1.0" encoding="UTF-8"?><svg id="Object" xmlns="http://www.w3.org/2000/svg" xmlns:xlink="http://www.w3.org/1999/xlink" viewBox="0 0 1000 1000"><defs><style>.cls-1{fill:none;}.cls-2{fill:#414042;}.cls-3{fill:#fccd47;}.cls-4{fill:#bcbec0;}.cls-5{fill:#b7e7f9;}.cls-6{clip-path:url(#clippath-1);}.cls-7{fill:#ea1fdb;}.cls-8{fill:#bcbcbc;}.cls-9{fill:#f2f2f2;}.cls-10{fill:#3d383e;}.cls-11{clip-path:url(#clippath);}.cls-12{fill:#898989;}</style><clipPath id="clippath"><circle class="cls-1" cx="500" cy="500" r="493.54"/></clipPath><clipPath id="clippath-1"><rect class="cls-1" x="287.25" y="417.15" width="162.25" height="162.25"/></clipPath></defs><g class="cls-11"><rect class="cls-5" width="1000" height="1000"/><path class="cls-8" d="M620.09,541c-6.3,0-12.57-2.64-17.01-7.79-8.1-9.39-7.06-23.57,2.33-31.67,33.64-29.02,52.94-71.13,52.94-115.51,0-84.07-68.4-152.47-152.47-152.47s-152.47,68.4-152.47,152.47c0,44.39,19.29,86.49,52.94,115.51,9.39,8.1,10.44,22.28,2.34,31.67-8.1,9.39-22.28,10.44-31.67,2.34-43.54-37.56-68.51-92.06-68.51-149.52,0-108.83,88.54-197.38,197.38-197.38s197.38,88.54,197.38,197.38c0,57.46-24.97,111.96-68.51,149.52-4.24,3.66-9.46,5.45-14.66,5.45Z"/><path class="cls-12" d="M703.25,386.03c0,57.46-24.96,111.95-68.5,149.51-4.25,3.66-9.46,5.46-14.66,5.46-6.31,0-12.58-2.65-17.02-7.8-.64-.73-1.23-1.51-1.73-2.32,55.34-30.92,92.47-87.93,92.47-153.13,0-98.19-84.15-177.76-187.95-177.76s-187.92,79.57-187.92,177.76c0,65.19,37.14,122.21,92.47,153.13-.5.8-1.09,1.58-1.73,2.32-8.11,9.41-22.29,10.45-31.67,2.34-43.54-37.56-68.53-92.05-68.53-149.51,0-108.83,88.55-197.38,197.38-197.38s197.38,88.55,197.38,197.38Z"/><path class="cls-9" d="M338.07,304.73c32.13-56.14,95.29-94.4,167.8-94.4s140.82,41.41,171.6,101.3c3.71-.05,7.42-.1,11.12-.13-29.47-71.98-100.24-122.85-182.72-122.85s-148.65,47.64-179.72,115.95c3.97.04,7.95.09,11.92.13Z"/><path class="cls-10" d="M585.71,217.13c-.04-.13-.09-.26-.16-.39-.38-.2-.73-.35-1.11-.49-.01.03-.03.04-.04.07l-.04.08s-.05.09-.09.16h.01c.48.22.98.46,1.44.69h.01s-.03-.07-.04-.1ZM491.54,199.76c-.39-.04-.79-.09-1.17-.16-.51-.07-1-.17-1.47-.26-.35-.07-.72-.14-1.07-.23-.35-.07-.7-.17-1.04-.26-.07-.01-.13-.03-.2-.05-.18-.03-.38-.08-.56-.14t-.03-.01s.05.09.08.12c.35.49.7.94,1.05,1.39.03.03.05.03.05.05h.04c1.56-.14,3.08-.29,4.64-.4-.12-.01-.23-.03-.34-.04ZM693.82,377.76c0-23.38-4.77-45.73-13.46-66.17-16.01-37.74-45.31-69.08-82.41-88.84-3.45-1.83-6.97-3.58-10.55-5.2-.61-.29-1.22-.56-1.83-.82-.38-.18-.74-.34-1.12-.51-2.54-1.11-5.1-2.16-7.69-3.16-2.38-.91-4.79-1.78-7.2-2.6.14.05.3.1.44.16.17.08.34.12.48.17,2.12.81,4.2,1.61,6.28,2.48,2.54,1.01,5.03,2.12,7.52,3.28h.01c.48.22.98.46,1.44.69h.01c.55.26,1.11.52,1.65.78,3.56,1.76,7.05,3.59,10.47,5.53,33.8,19.22,61.06,48.7,77.51,84.15,0,.01,0,.03.01.04s.01.03.01.04c11.07,23.8,17.21,50.32,17.21,78.24,0,6.27-.3,12.5-.94,18.69,1.42-8.79,2.15-17.79,2.15-26.95ZM425.18,217.19c-.08.17-.13.35-.18.52.6-.27,1.17-.56,1.76-.82h.01c-.07-.12-.12-.23-.16-.35-.48.21-.95.43-1.43.65ZM596.76,198.93c-3.08-1.51-6.2-2.94-9.36-4.28-1.48-.64-2.98-1.26-4.49-1.86-.01,0-.01-.01-.03-.01-10.66-4.25-21.74-7.66-33.19-10.12-3.46-.75-6.94-1.42-10.46-1.96h-.01c-1-.18-1.98-.33-2.97-.47h-.01c-2.51-.38-5.02-.72-7.54-.95-.55-.09-1.12-.14-1.65-.18h-.04c-3.37-.36-6.79-.62-10.2-.81-3.63-.2-7.28-.29-10.95-.29-4.92,0-9.78.17-14.6.52h-.03c-3.03.18-6.05.47-9.03.85-.38,0-.75.05-1.12.12h-.03c-3.16.36-6.28.81-9.38,1.35h-.03c-3.51.57-7.01,1.24-10.44,2.02-11.56,2.5-22.75,6-33.47,10.39h-.03c-1.42.57-2.82,1.16-4.23,1.77-3.19,1.38-6.33,2.84-9.45,4.38-68.77,33.97-116.19,104.88-116.19,186.62,0,60.56,26.33,118.01,72.22,157.57,6,5.2,13.68,8.04,21.6,8.04h.12c4.85-.03,9.53-1.08,13.81-3.07,4.23-1.96,8.01-4.8,11.13-8.39,5.79-6.7,8.6-15.25,7.96-24.07-.04-.66-.12-1.31-.21-1.98-.64-4.8-2.29-9.31-4.82-13.32-1.74-2.72-3.88-5.18-6.36-7.32-31.29-27-49.26-66.17-49.26-107.46,0-54.46,30.87-101.88,76.05-125.61,5.27-2.78,10.76-5.24,16.4-7.32.01-.01.01-.03.03-.01h.01s0-.01.01-.01h.01c15.37-5.75,31.99-8.87,49.31-8.87s33.92,3.12,49.26,8.84h.03s.03.01.03.01h.01c5.54,2.04,10.92,4.46,16.1,7.18,45.36,23.66,76.4,71.16,76.4,125.8,0,41.29-17.95,80.46-49.24,107.46-1.44,1.25-2.77,2.6-3.93,4.02-2.39,2.89-4.21,6.1-5.46,9.51-1.51,4.03-2.2,8.34-2.05,12.61.21,7.31,2.86,14.59,7.99,20.55,6.32,7.28,15.44,11.46,25.09,11.46.35,0,.7,0,1.07-.03,4.32-.13,8.56-1.11,12.45-2.87,2.91-1.27,5.66-3,8.09-5.14.35-.3.72-.61,1.04-.92,45.24-39.52,71.15-96.56,71.15-156.64,0-82.14-47.85-153.29-117.12-187.09ZM627.12,528.03c-2.04,1.5-4.5,2.31-7.02,2.31-3.46,0-6.71-1.48-8.96-4.08-.23-.26-.46-.55-.64-.83-2.89-3.99-2.94-9.29-.34-13.28.57-.92,1.33-1.79,2.2-2.56,35.98-31.06,56.62-76.08,56.62-123.57,0-59.43-31.97-111.54-79.62-140.04-1.38-.85-2.78-1.65-4.19-2.44-1.7-.96-3.42-1.89-5.16-2.8h-.01c-3.3-1.68-6.67-3.26-10.09-4.71-1.65-.73-3.33-1.42-5.03-2.05h-.03s-.01-.01-.03-.01c-18.28-7.13-38.16-11.05-58.95-11.05s-40.95,3.98-59.34,11.21h-.01c-1.77.69-3.55,1.39-5.27,2.15-3.43,1.5-6.81,3.1-10.09,4.8h-.01c-1.76.92-3.49,1.86-5.2,2.84-1.39.78-2.78,1.59-4.15,2.42-47.32,28.57-79.03,80.51-79.03,139.7,0,47.49,20.66,92.52,56.64,123.57,4.68,4.02,5.42,10.92,1.87,15.84-.2.29-.4.57-.64.83-2.25,2.6-5.51,4.08-8.96,4.08-2.84,0-5.55-1.01-7.7-2.86-36.56-31.52-59.26-75.64-63.95-123.14v-.14c-.6-6.01-.9-12.08-.9-18.18,0-29.12,6.68-56.7,18.65-81.29,16.43-33.85,42.79-62.02,75.29-80.72,3.41-1.96,6.88-3.81,10.43-5.55.49-.23.99-.49,1.48-.73h.01c.6-.29,1.17-.57,1.76-.83h.01c2.44-1.16,4.89-2.25,7.37-3.26,2.32-.98,4.7-1.93,7.09-2.82.17-.06.34-.12.52-.18.12-.04.23-.09.35-.13,8.86-3.21,18-5.8,27.41-7.65,2.37-.49,4.73-.92,7.14-1.27h.03c1.7-.29,3.43-.52,5.15-.73h.03s.01,0,.01,0c1.78-.26,3.56-.46,5.33-.64h.04c1.56-.14,3.08-.29,4.64-.4h.03c3.13-.23,6.29-.4,9.45-.46.36-.03.69-.03,1.03-.03h.08c.22-.01.38-.01.6,0h.03c.91-.04,1.86-.04,2.78-.04,1.25,0,2.48.03,3.73.04,6.59.12,13.1.6,19.53,1.42h.01c4.14.51,8.26,1.17,12.32,1.96,9.66,1.85,19.04,4.45,28.09,7.76.14.05.3.1.44.16.17.08.34.12.48.17,2.12.81,4.2,1.61,6.28,2.48,2.54,1.01,5.03,2.12,7.52,3.28h.01c.48.22.98.46,1.44.69h.01c.55.26,1.11.52,1.65.78,3.56,1.76,7.05,3.59,10.47,5.53,33.8,19.22,61.06,48.7,77.51,84.15,0,.01,0,.03.01.04s.01.03.01.04c11.07,23.8,17.21,50.32,17.21,78.24,0,6.27-.3,12.5-.94,18.69v.04c-4.76,47.34-27.45,91.31-63.88,122.74-.21.2-.44.39-.68.55ZM491.54,199.76c-.39-.04-.79-.09-1.17-.16-.51-.07-1-.17-1.47-.26-.35-.07-.72-.14-1.07-.23-.35-.07-.7-.17-1.04-.26-.07-.01-.13-.03-.2-.05-.18-.03-.38-.08-.56-.14t-.03-.01s.05.09.08.12c.35.49.7.94,1.05,1.39.03.03.05.03.05.05h.04c1.56-.14,3.08-.29,4.64-.4-.12-.01-.23-.03-.34-.04ZM585.71,217.13c-.04-.13-.09-.26-.16-.39-.38-.2-.73-.35-1.11-.49-.01.03-.03.04-.04.07l-.04.08s-.05.09-.09.16h.01c.48.22.98.46,1.44.69h.01s-.03-.07-.04-.1ZM585.71,217.13c-.04-.13-.09-.26-.16-.39-.38-.2-.73-.35-1.11-.49-.01.03-.03.04-.04.07l-.04.08s-.05.09-.09.16h.01c.48.22.98.46,1.44.69h.01s-.03-.07-.04-.1Z"/><rect class="cls-8" x="423.5" y="176.25" width="163.9" height="76.81" rx="14.05" ry="14.05"/><path class="cls-12" d="M587.4,209.45v10.4c0,18.34-14.87,33.21-33.21,33.21h-97.48c-18.34,0-33.21-14.87-33.21-33.21v-10.4c0-1.18.07-2.32.17-3.47,1.75,16.71,15.88,29.74,33.05,29.74h97.48c17.16,0,31.3-13.02,33.05-29.74.09,1.16.17,2.29.17,3.47Z"/><path class="cls-9" d="M587.4,209.45v10.4c0,1.3-.07,2.6-.24,3.88-1.89-16.52-15.93-29.36-32.98-29.36h-97.48c-17.04,0-31.08,12.84-32.98,29.36-.17-1.28-.24-2.58-.24-3.88v-10.4c0-18.34,14.87-33.21,33.21-33.21h97.48c18.34,0,33.21,14.87,33.21,33.21Z"/><path class="cls-10" d="M596.76,198.93c-4.73-19.1-22.03-33.32-42.58-33.32h-97.48c-20.7,0-38.1,14.42-42.66,33.79-.78,3.24-1.18,6.59-1.18,10.07v10.38c0,1.13.04,2.25.14,3.36,0,.26.01.55.07.81.26,2.84.78,5.58,1.59,8.23,1.51,5.15,3.94,9.92,7.14,14.08,2.2,2.93,4.77,5.55,7.66,7.82h.01c3.19,2.59,6.76,4.68,10.63,6.27,5.12,2.13,10.73,3.29,16.61,3.29h97.48c6.07,0,11.85-1.24,17.11-3.47,3.81-1.64,7.35-3.78,10.52-6.36,2.84-2.3,5.37-4.94,7.54-7.88,3.15-4.17,5.53-8.95,7-14.14.75-2.67,1.27-5.44,1.51-8.3l.08-.78h0c.07-.98.09-1.94.09-2.93v-10.38c0-3.64-.46-7.17-1.27-10.53ZM556.69,242.27h-.01c-.83.09-1.64.14-2.5.14h-97.48c-.6,0-1.21-.03-1.79-.08h-.04c-5.25-.42-10-2.64-13.62-6.07-2.37-2.22-4.27-4.92-5.49-7.99v-.03c-.64-1.56-1.09-3.17-1.35-4.85h0c-.18-1.17-.27-2.35-.27-3.56v-10.38c0-2.55.42-4.98,1.2-7.28h0c.08-.2.12-.35.2-.53,0-.01.01-.01.01-.03s.01-.01.01-.03c3.21-8.58,11.48-14.71,21.15-14.71h97.48c9.53,0,17.71,5.94,20.99,14.31t.01.01s0,.01,0,.01t.01.03c.14.29.23.62.34.91t.01.03c.78,2.3,1.21,4.73,1.21,7.28v10.38c0,1.12-.07,2.18-.23,3.25h0c-.26,1.81-.73,3.54-1.39,5.16v.03c-1.18,2.95-2.98,5.58-5.23,7.75-3.5,3.41-8.12,5.67-13.21,6.24Z"/><circle class="cls-8" cx="505.45" cy="176.25" r="34.08" transform="translate(11.09 381.56) rotate(-41.78)"/><path class="cls-12" d="M539.53,176.24c0,18.82-15.27,34.09-34.09,34.09-12.27,0-23.02-6.48-29.03-16.22,5.46,3.71,12.06,5.89,19.17,5.89,18.84,0,34.09-15.27,34.09-34.09,0-6.5-1.82-12.6-4.99-17.78,8.96,6.12,14.84,16.43,14.84,28.11Z"/><path class="cls-9" d="M531.75,197.92c2.91-4.4,4.61-9.64,4.61-15.32,0-15.32-12.41-27.73-27.73-27.73s-27.73,12.41-27.73,27.73,11.65,26.95,26.29,27.68c-.57.02-1.16.05-1.75.05-18.82,0-34.09-15.27-34.09-34.09s15.27-34.06,34.09-34.06,34.09,15.25,34.09,34.06c0,8.23-2.93,15.77-7.78,21.68Z"/><path class="cls-10" d="M548.87,165.61c-3.91-16.11-16.66-28.86-32.79-32.79-3.41-.85-6.97-1.3-10.64-1.3s-7.23.46-10.64,1.3c-16.11,3.93-28.86,16.67-32.79,32.79-.85,3.41-1.3,6.98-1.3,10.64,0,2.25.17,4.45.51,6.61.18,1.37.44,2.72.79,4.03.49,2.16,1.18,4.21,2.02,6.22v.03c.17.43.35.85.55,1.25h0c1.31,3,2.99,5.84,4.93,8.47.12.13.23.3.33.43,0,.01.01.01.01.03,2.55,3.36,5.55,6.33,8.93,8.84,7.45,5.55,16.69,8.83,26.66,8.83s19.27-3.33,26.75-8.92c0-.01.01-.01.01-.01h.03c3.38-2.52,6.37-5.5,8.93-8.88,0-.01.01-.01.01-.03.09-.14.2-.3.29-.43,1.92-2.57,3.55-5.36,4.85-8.31h0c.21-.49.43-.95.59-1.43h.03c.81-1.98,1.44-3.99,1.94-6.07.36-1.37.64-2.78.83-4.23.3-2.08.47-4.23.47-6.41,0-3.65-.44-7.23-1.3-10.64ZM505.44,199.69c-.85,0-1.7-.04-2.52-.13-.35-.03-.74-.08-1.09-.13h-.07c-.16-.04-.25-.07-.4-.09-4.04-.7-7.71-2.46-10.76-4.95h-.01c-1.68-1.39-3.16-2.98-4.38-4.76v-.03c-.4-.53-.78-1.11-1.09-1.7-.21-.33-.4-.65-.56-1.01-1.18-2.31-1.99-4.84-2.34-7.52-.14-1.01-.22-2.05-.22-3.12,0-.49.03-.99.05-1.46v-.03c.21-3.29,1.08-6.36,2.51-9.16,3.88-7.58,11.78-12.81,20.89-12.81.86,0,1.7.05,2.54.14,3.71.4,7.15,1.65,10.13,3.59,0,.01.01.01.01.01.01,0,.01.01.04.01h.01c3.15,2.05,5.74,4.77,7.59,8.02,0,0,0,.01.01.01.21.33.39.66.56,1.01,1.27,2.47,2.11,5.19,2.43,8.09v.08c.08.79.12,1.63.12,2.47,0,1.03-.07,2.04-.18,3.03-.35,2.72-1.16,5.27-2.37,7.61-.47.92-.99,1.79-1.61,2.65v.03c-1.22,1.79-2.72,3.41-4.42,4.81h-.01c-3.03,2.48-6.7,4.24-10.69,4.94-1.34.26-2.74.38-4.16.38Z"/><path class="cls-10" d="M486.82,215.36c-2,0-4.02-.56-5.81-1.74-4.92-3.21-6.3-9.81-3.08-14.72l37.24-56.95c3.21-4.91,9.8-6.3,14.72-3.08,4.92,3.21,6.3,9.81,3.08,14.72l-37.24,56.95c-2.04,3.12-5.44,4.82-8.91,4.82Z"/><path class="cls-10" d="M516.08-250.08V142.16c0,.57-.04,1.12-.14,1.66h0c-.64,4.16-3.64,7.45-7.59,8.57h-.01c-.9.26-1.87.4-2.89.4-5.32,0-9.69-3.88-10.49-8.96h0c-.09-.56-.14-1.11-.14-1.68V-250.08h21.28Z"/><path class="cls-2" d="M327.26,497.14l95.66,296.05c1.32,4.07-1.09,8.49-5.37,9.87-4.27,1.38-8.8-.79-10.12-4.86l-95.66-296.05c-1.31-4.06,1.09-8.49,5.36-9.87,4.28-1.38,8.81.8,10.13,4.86Z"/><path class="cls-2" d="M644.43,393.05l-21.71,6.9-11.74-36.32c-1.32-4.07-5.84-6.25-10.12-4.86l-289.41,93.52c-25.75,8.32-40.41,34.51-32.7,58.39l118.71,367.38c.09.27.18.52.29.77,3.35,8.86,9.9,16.03,18.61,20.32,9.32,4.59,19.99,5.32,30.06,2.07l25.18-8.23,16.28,50.38c.92,2.84,3.47,4.88,6.56,5.22,3.09.36,6.17-1.04,7.91-3.59l15.12-22.1,22.43,9.64c1.87.8,3.96.87,5.87.25,1.05-.34,2.04-.89,2.91-1.63,2.44-2.08,3.4-5.32,2.45-8.24l-16.25-50.3,239.46-77.38c4.27-1.38,6.67-5.8,5.36-9.87l-125.2-387.45c-1.31-4.05-5.81-6.23-10.08-4.88ZM294.24,505.67c-5.09-15.75,4.77-33.1,21.98-38.66l281.67-91.02,115.91,358.7-290.83,93.98c-8.23,2.66-15.02,7.71-19.81,14.07l-108.92-337.07ZM530.24,911.15l-12.1-5.21c-3.63-1.56-7.97-.29-10.21,2.98l-9.55,13.96-20.59-63.73,32.28-10.43,20.17,62.43ZM761.86,783.02l-231.72,74.88-4.58-14.17,210.09-67.89c4.28-1.38,6.67-5.8,5.36-9.87-1.32-4.07-5.84-6.25-10.12-4.86l-282.61,91.32c-4.28,1.38-6.67,5.8-5.36,9.87s5.84,6.25,10.12,4.86l9.28-3,4.55,14.09-25.2,8.24c-5.86,1.89-12.09,1.46-17.56-1.24-5.52-2.72-9.58-7.39-11.45-13.18-3.84-11.88,2.93-24.74,15.09-28.67l298.57-96.48c4.28-1.38,6.67-5.8,5.36-9.87l-104.17-322.37,13.92-4.42,120.45,372.75Z"/><path class="cls-7" d="M510.07,848.73l20.17,62.43-12.1-5.21c-3.63-1.56-7.97-.29-10.21,2.98l-9.55,13.96-20.59-63.73,32.28-10.43Z"/><path class="cls-4" d="M641.41,410.26l120.45,372.75-231.72,74.88-4.58-14.17,210.09-67.89c4.28-1.38,6.67-5.8,5.36-9.87-1.32-4.07-5.84-6.25-10.12-4.86l-282.61,91.32c-4.28,1.38-6.67,5.8-5.36,9.87s5.84,6.25,10.12,4.86l9.28-3,4.55,14.09-25.2,8.24c-5.86,1.89-12.09,1.46-17.56-1.24-5.52-2.72-9.58-7.39-11.45-13.18-3.84-11.88,2.93-24.74,15.09-28.67l298.57-96.48c4.28-1.38,6.67-5.8,5.36-9.87l-104.17-322.37,13.92-4.42Z"/><path class="cls-3" d="M316.22,467.02c-17.21,5.56-27.07,22.91-21.98,38.66l108.92,337.07c4.79-6.37,11.58-11.41,19.81-14.07l290.83-93.98-115.91-358.7-281.67,91.02ZM422.92,793.19c1.32,4.07-1.09,8.49-5.37,9.87-4.27,1.38-8.8-.79-10.12-4.86l-95.66-296.05c-1.31-4.06,1.09-8.49,5.36-9.87,4.28-1.38,8.81.8,10.13,4.86l95.66,296.05Z"/><g class="cls-6"><path class="cls-8" d="M620.09,541c-6.3,0-12.57-2.64-17.01-7.79-8.1-9.39-7.06-23.57,2.33-31.67,33.64-29.02,52.94-71.13,52.94-115.51,0-84.07-68.4-152.47-152.47-152.47s-152.47,68.4-152.47,152.47c0,44.39,19.29,86.49,52.94,115.51,9.39,8.1,10.44,22.28,2.34,31.67-8.1,9.39-22.28,10.44-31.67,2.34-43.54-37.56-68.51-92.06-68.51-149.52,0-108.83,88.54-197.38,197.38-197.38s197.38,88.54,197.38,197.38c0,57.46-24.97,111.96-68.51,149.52-4.24,3.66-9.46,5.45-14.66,5.45Z"/><path class="cls-12" d="M703.25,386.03c0,57.46-24.96,111.95-68.5,149.51-4.25,3.66-9.46,5.46-14.66,5.46-6.31,0-12.58-2.65-17.02-7.8-.64-.73-1.23-1.51-1.73-2.32,55.34-30.92,92.47-87.93,92.47-153.13,0-98.19-84.15-177.76-187.95-177.76s-187.92,79.57-187.92,177.76c0,65.19,37.14,122.21,92.47,153.13-.5.8-1.09,1.58-1.73,2.32-8.11,9.41-22.29,10.45-31.67,2.34-43.54-37.56-68.53-92.05-68.53-149.51,0-108.83,88.55-197.38,197.38-197.38s197.38,88.55,197.38,197.38Z"/><path class="cls-9" d="M338.07,304.73c32.13-56.14,95.29-94.4,167.8-94.4s140.82,41.41,171.6,101.3c3.71-.05,7.42-.1,11.12-.13-29.47-71.98-100.24-122.85-182.72-122.85s-148.65,47.64-179.72,115.95c3.97.04,7.95.09,11.92.13Z"/><path class="cls-10" d="M585.71,217.13c-.04-.13-.09-.26-.16-.39-.38-.2-.73-.35-1.11-.49-.01.03-.03.04-.04.07l-.04.08s-.05.09-.09.16h.01c.48.22.98.46,1.44.69h.01s-.03-.07-.04-.1ZM491.54,199.76c-.39-.04-.79-.09-1.17-.16-.51-.07-1-.17-1.47-.26-.35-.07-.72-.14-1.07-.23-.35-.07-.7-.17-1.04-.26-.07-.01-.13-.03-.2-.05-.18-.03-.38-.08-.56-.14t-.03-.01s.05.09.08.12c.35.49.7.94,1.05,1.39.03.03.05.03.05.05h.04c1.56-.14,3.08-.29,4.64-.4-.12-.01-.23-.03-.34-.04ZM693.82,377.76c0-23.38-4.77-45.73-13.46-66.17-16.01-37.74-45.31-69.08-82.41-88.84-3.45-1.83-6.97-3.58-10.55-5.2-.61-.29-1.22-.56-1.83-.82-.38-.18-.74-.34-1.12-.51-2.54-1.11-5.1-2.16-7.69-3.16-2.38-.91-4.79-1.78-7.2-2.6.14.05.3.1.44.16.17.08.34.12.48.17,2.12.81,4.2,1.61,6.28,2.48,2.54,1.01,5.03,2.12,7.52,3.28h.01c.48.22.98.46,1.44.69h.01c.55.26,1.11.52,1.65.78,3.56,1.76,7.05,3.59,10.47,5.53,33.8,19.22,61.06,48.7,77.51,84.15,0,.01,0,.03.01.04s.01.03.01.04c11.07,23.8,17.21,50.32,17.21,78.24,0,6.27-.3,12.5-.94,18.69,1.42-8.79,2.15-17.79,2.15-26.95ZM425.18,217.19c-.08.17-.13.35-.18.52.6-.27,1.17-.56,1.76-.82h.01c-.07-.12-.12-.23-.16-.35-.48.21-.95.43-1.43.65ZM596.76,198.93c-3.08-1.51-6.2-2.94-9.36-4.28-1.48-.64-2.98-1.26-4.49-1.86-.01,0-.01-.01-.03-.01-10.66-4.25-21.74-7.66-33.19-10.12-3.46-.75-6.94-1.42-10.46-1.96h-.01c-1-.18-1.98-.33-2.97-.47h-.01c-2.51-.38-5.02-.72-7.54-.95-.55-.09-1.12-.14-1.65-.18h-.04c-3.37-.36-6.79-.62-10.2-.81-3.63-.2-7.28-.29-10.95-.29-4.92,0-9.78.17-14.6.52h-.03c-3.03.18-6.05.47-9.03.85-.38,0-.75.05-1.12.12h-.03c-3.16.36-6.28.81-9.38,1.35h-.03c-3.51.57-7.01,1.24-10.44,2.02-11.56,2.5-22.75,6-33.47,10.39h-.03c-1.42.57-2.82,1.16-4.23,1.77-3.19,1.38-6.33,2.84-9.45,4.38-68.77,33.97-116.19,104.88-116.19,186.62,0,60.56,26.33,118.01,72.22,157.57,6,5.2,13.68,8.04,21.6,8.04h.12c4.85-.03,9.53-1.08,13.81-3.07,4.23-1.96,8.01-4.8,11.13-8.39,5.79-6.7,8.6-15.25,7.96-24.07-.04-.66-.12-1.31-.21-1.98-.64-4.8-2.29-9.31-4.82-13.32-1.74-2.72-3.88-5.18-6.36-7.32-31.29-27-49.26-66.17-49.26-107.46,0-54.46,30.87-101.88,76.05-125.61,5.27-2.78,10.76-5.24,16.4-7.32.01-.01.01-.03.03-.01h.01s0-.01.01-.01h.01c15.37-5.75,31.99-8.87,49.31-8.87s33.92,3.12,49.26,8.84h.03s.03.01.03.01h.01c5.54,2.04,10.92,4.46,16.1,7.18,45.36,23.66,76.4,71.16,76.4,125.8,0,41.29-17.95,80.46-49.24,107.46-1.44,1.25-2.77,2.6-3.93,4.02-2.39,2.89-4.21,6.1-5.46,9.51-1.51,4.03-2.2,8.34-2.05,12.61.21,7.31,2.86,14.59,7.99,20.55,6.32,7.28,15.44,11.46,25.09,11.46.35,0,.7,0,1.07-.03,4.32-.13,8.56-1.11,12.45-2.87,2.91-1.27,5.66-3,8.09-5.14.35-.3.72-.61,1.04-.92,45.24-39.52,71.15-96.56,71.15-156.64,0-82.14-47.85-153.29-117.12-187.09ZM627.12,528.03c-2.04,1.5-4.5,2.31-7.02,2.31-3.46,0-6.71-1.48-8.96-4.08-.23-.26-.46-.55-.64-.83-2.89-3.99-2.94-9.29-.34-13.28.57-.92,1.33-1.79,2.2-2.56,35.98-31.06,56.62-76.08,56.62-123.57,0-59.43-31.97-111.54-79.62-140.04-1.38-.85-2.78-1.65-4.19-2.44-1.7-.96-3.42-1.89-5.16-2.8h-.01c-3.3-1.68-6.67-3.26-10.09-4.71-1.65-.73-3.33-1.42-5.03-2.05h-.03s-.01-.01-.03-.01c-18.28-7.13-38.16-11.05-58.95-11.05s-40.95,3.98-59.34,11.21h-.01c-1.77.69-3.55,1.39-5.27,2.15-3.43,1.5-6.81,3.1-10.09,4.8h-.01c-1.76.92-3.49,1.86-5.2,2.84-1.39.78-2.78,1.59-4.15,2.42-47.32,28.57-79.03,80.51-79.03,139.7,0,47.49,20.66,92.52,56.64,123.57,4.68,4.02,5.42,10.92,1.87,15.84-.2.29-.4.57-.64.83-2.25,2.6-5.51,4.08-8.96,4.08-2.84,0-5.55-1.01-7.7-2.86-36.56-31.52-59.26-75.64-63.95-123.14v-.14c-.6-6.01-.9-12.08-.9-18.18,0-29.12,6.68-56.7,18.65-81.29,16.43-33.85,42.79-62.02,75.29-80.72,3.41-1.96,6.88-3.81,10.43-5.55.49-.23.99-.49,1.48-.73h.01c.6-.29,1.17-.57,1.76-.83h.01c2.44-1.16,4.89-2.25,7.37-3.26,2.32-.98,4.7-1.93,7.09-2.82.17-.06.34-.12.52-.18.12-.04.23-.09.35-.13,8.86-3.21,18-5.8,27.41-7.65,2.37-.49,4.73-.92,7.14-1.27h.03c1.7-.29,3.43-.52,5.15-.73h.03s.01,0,.01,0c1.78-.26,3.56-.46,5.33-.64h.04c1.56-.14,3.08-.29,4.64-.4h.03c3.13-.23,6.29-.4,9.45-.46.36-.03.69-.03,1.03-.03h.08c.22-.01.38-.01.6,0h.03c.91-.04,1.86-.04,2.78-.04,1.25,0,2.48.03,3.73.04,6.59.12,13.1.6,19.53,1.42h.01c4.14.51,8.26,1.17,12.32,1.96,9.66,1.85,19.04,4.45,28.09,7.76.14.05.3.1.44.16.17.08.34.12.48.17,2.12.81,4.2,1.61,6.28,2.48,2.54,1.01,5.03,2.12,7.52,3.28h.01c.48.22.98.46,1.44.69h.01c.55.26,1.11.52,1.65.78,3.56,1.76,7.05,3.59,10.47,5.53,33.8,19.22,61.06,48.7,77.51,84.15,0,.01,0,.03.01.04s.01.03.01.04c11.07,23.8,17.21,50.32,17.21,78.24,0,6.27-.3,12.5-.94,18.69v.04c-4.76,47.34-27.45,91.31-63.88,122.74-.21.2-.44.39-.68.55ZM491.54,199.76c-.39-.04-.79-.09-1.17-.16-.51-.07-1-.17-1.47-.26-.35-.07-.72-.14-1.07-.23-.35-.07-.7-.17-1.04-.26-.07-.01-.13-.03-.2-.05-.18-.03-.38-.08-.56-.14t-.03-.01s.05.09.08.12c.35.49.7.94,1.05,1.39.03.03.05.03.05.05h.04c1.56-.14,3.08-.29,4.64-.4-.12-.01-.23-.03-.34-.04ZM585.71,217.13c-.04-.13-.09-.26-.16-.39-.38-.2-.73-.35-1.11-.49-.01.03-.03.04-.04.07l-.04.08s-.05.09-.09.16h.01c.48.22.98.46,1.44.69h.01s-.03-.07-.04-.1ZM585.71,217.13c-.04-.13-.09-.26-.16-.39-.38-.2-.73-.35-1.11-.49-.01.03-.03.04-.04.07l-.04.08s-.05.09-.09.16h.01c.48.22.98.46,1.44.69h.01s-.03-.07-.04-.1Z"/></g></g></svg>